<svg width="275" height="82" viewBox="0 0 275 82" fill="none" xmlns="http://www.w3.org/2000/svg">
<path d="M108 81.8547V73.1447H109.203V81.8553L108 81.8547ZM113.647 81.8547V74.1678H110.64V73.1447H117.857V74.1678H114.849V81.8547H113.647ZM122 79.0584L123.136 78.9625C123.186 79.3938 123.32 79.7456 123.504 80.0333C123.704 80.3204 124.005 80.5439 124.423 80.7204C124.84 80.8957 125.308 80.9757 125.826 80.9757C126.277 80.9757 126.678 80.9122 127.046 80.7846C127.396 80.641 127.647 80.4645 127.83 80.2409C127.998 80.0015 128.081 79.7615 128.081 79.4903C128.081 79.2185 127.998 78.979 127.83 78.7866C127.664 78.579 127.396 78.4037 127.012 78.2595C126.761 78.1795 126.226 78.0354 125.391 77.8442C124.556 77.6524 123.971 77.4759 123.637 77.3006C123.202 77.077 122.884 76.8046 122.668 76.4852C122.45 76.1657 122.351 75.7974 122.351 75.3985C122.351 74.9508 122.484 74.5514 122.735 74.1678C123.003 73.7842 123.37 73.4965 123.888 73.2883C124.389 73.0971 124.94 73.0012 125.558 73.0012C126.226 73.0012 126.812 73.0971 127.33 73.3047C127.848 73.513 128.249 73.8166 128.516 74.2319C128.8 74.632 128.95 75.095 128.967 75.6062L127.814 75.6862C127.747 75.1426 127.547 74.7279 127.179 74.4396C126.828 74.1525 126.294 74.0248 125.592 74.0248C124.873 74.0248 124.339 74.1525 124.004 74.4078C123.67 74.6637 123.503 74.9667 123.503 75.3191C123.503 75.638 123.62 75.8945 123.854 76.1016C124.088 76.2934 124.689 76.5016 125.675 76.7252C126.661 76.9335 127.329 77.1252 127.697 77.2688C128.215 77.5082 128.599 77.7959 128.867 78.1636C129.117 78.516 129.234 78.9314 129.234 79.395C129.234 79.858 129.1 80.2898 128.817 80.7057C128.549 81.1052 128.148 81.4252 127.63 81.6641C127.113 81.8882 126.528 82 125.876 82C125.057 82 124.372 81.8882 123.804 81.6482C123.253 81.4246 122.819 81.0722 122.501 80.6092C122.184 80.1609 122.017 79.6332 122 79.0584ZM130.321 78.6907C130.321 77.5241 130.654 76.6611 131.34 76.1016C131.907 75.638 132.592 75.3991 133.411 75.3991C134.313 75.3991 135.065 75.6862 135.633 76.2616C136.201 76.8211 136.502 77.6047 136.502 78.6107C136.502 79.4103 136.368 80.0497 136.118 80.5127C135.867 80.9757 135.483 81.344 134.998 81.5994C134.514 81.8559 133.979 81.9829 133.411 81.9829C132.492 81.9829 131.741 81.7111 131.172 81.1358C130.604 80.5769 130.321 79.7609 130.321 78.6907ZM131.456 78.6907C131.456 79.5061 131.64 80.1133 132.025 80.5127C132.392 80.9122 132.843 81.104 133.411 81.104C133.962 81.104 134.43 80.9122 134.798 80.5127C135.166 80.0974 135.349 79.4903 135.349 78.659C135.349 77.8918 135.166 77.3006 134.798 76.9011C134.43 76.5016 133.963 76.294 133.411 76.294C132.843 76.294 132.392 76.4857 132.025 76.8852C131.64 77.2841 131.456 77.8912 131.456 78.6907ZM137.788 81.8547V73.1447H138.907V81.8553L137.788 81.8547ZM144.939 81.8547V80.911C144.438 81.6305 143.736 81.9818 142.85 81.9818C142.466 81.9818 142.099 81.9182 141.764 81.7735C141.43 81.63 141.179 81.454 141.012 81.2305C140.862 81.0222 140.745 80.751 140.678 80.4469C140.628 80.2233 140.611 79.9038 140.611 79.4408V75.5409H141.731V79.0249C141.731 79.5844 141.747 79.968 141.797 80.1598C141.864 80.4316 142.015 80.6557 142.249 80.8151C142.466 80.9746 142.749 81.054 143.084 81.054C143.418 81.054 143.736 80.974 144.019 80.8151C144.32 80.6557 144.52 80.4316 144.654 80.1433C144.771 79.8556 144.821 79.4561 144.821 78.9131V75.5409H145.94V81.8535H144.939V81.8547ZM150.134 80.8957L150.284 81.8394C149.967 81.9029 149.683 81.9353 149.449 81.9353C149.032 81.9353 148.731 81.8717 148.497 81.7594C148.279 81.6311 148.129 81.4717 148.029 81.264C147.945 81.0716 147.896 80.6404 147.896 80.0015V76.3734H147.06V75.5427H147.896V73.976L149.015 73.3371V75.5427H150.134V76.3734H149.015V80.065C149.015 80.3686 149.032 80.5604 149.065 80.6569C149.116 80.7369 149.182 80.8163 149.266 80.8646C149.349 80.9122 149.483 80.9446 149.65 80.9446C149.767 80.944 149.934 80.9275 150.134 80.8957ZM151.237 74.359V73.1447H152.356V74.359H151.237ZM151.237 81.8547V75.5421H152.356V81.8547H151.237ZM153.643 78.6907C153.643 77.5241 153.977 76.6611 154.662 76.1016C155.23 75.638 155.915 75.3991 156.734 75.3991C157.636 75.3991 158.388 75.6862 158.956 76.2616C159.524 76.8211 159.825 77.6047 159.825 78.6107C159.825 79.4103 159.691 80.0497 159.441 80.5127C159.19 80.9757 158.806 81.344 158.321 81.5994C157.837 81.8559 157.302 81.9829 156.734 81.9829C155.815 81.9829 155.064 81.7111 154.495 81.1358C153.926 80.5769 153.643 79.7609 153.643 78.6907ZM154.779 78.6907C154.779 79.5061 154.963 80.1133 155.347 80.5127C155.715 80.9122 156.166 81.104 156.733 81.104C157.284 81.104 157.752 80.9122 158.12 80.5127C158.487 80.0974 158.671 79.4903 158.671 78.659C158.671 77.8918 158.487 77.3006 158.12 76.9011C157.752 76.5016 157.284 76.294 156.733 76.294C156.165 76.294 155.714 76.4857 155.347 76.8852C154.963 77.2841 154.779 77.8912 154.779 78.6907ZM161.128 81.8547V75.5421H162.129V76.4369C162.614 75.7492 163.316 75.398 164.235 75.398C164.636 75.398 164.987 75.478 165.32 75.6056C165.655 75.7492 165.905 75.9257 166.072 76.1492C166.239 76.3728 166.356 76.6287 166.423 76.9323C166.457 77.1405 166.49 77.4753 166.49 77.9712V81.8553H165.37V78.0189C165.37 77.5882 165.32 77.2517 165.236 77.0446C165.153 76.8205 164.986 76.6446 164.769 76.5175C164.552 76.3893 164.284 76.3251 164 76.3251C163.516 76.3251 163.115 76.4699 162.764 76.757C162.413 77.0446 162.246 77.6041 162.246 78.4031V81.8553L161.128 81.8547ZM172.003 81.8547V76.3728H171.001V75.5421H172.003V74.8708C172.003 74.439 172.037 74.1354 172.12 73.9272C172.22 73.656 172.404 73.4318 172.688 73.2559C172.955 73.08 173.34 73 173.824 73C174.125 73 174.476 73.0324 174.86 73.0959L174.693 74.0395C174.46 74.0072 174.242 73.9748 174.041 73.9748C173.691 73.9748 173.457 74.0554 173.323 74.1831C173.173 74.3266 173.106 74.582 173.106 74.9655V75.5415H174.392V76.3722H173.123V81.8541L172.003 81.8547ZM174.843 78.6907C174.843 77.5241 175.177 76.6611 175.862 76.1016C176.431 75.638 177.116 75.3991 177.934 75.3991C178.837 75.3991 179.588 75.6862 180.156 76.2616C180.741 76.8211 181.025 77.6047 181.025 78.6107C181.025 79.4103 180.891 80.0497 180.641 80.5127C180.391 80.9757 180.023 81.344 179.522 81.5994C179.037 81.8559 178.519 81.9829 177.934 81.9829C177.016 81.9829 176.264 81.7111 175.696 81.1358C175.128 80.5769 174.843 79.7609 174.843 78.6907ZM175.98 78.6907C175.98 79.5061 176.18 80.1133 176.548 80.5127C176.915 80.9122 177.383 81.104 177.934 81.104C178.486 81.104 178.954 80.9122 179.321 80.5127C179.689 80.0974 179.872 79.4903 179.872 78.659C179.872 77.8918 179.688 77.3006 179.321 76.9011C178.954 76.5016 178.486 76.294 177.934 76.294C177.383 76.294 176.915 76.4857 176.548 76.8852C176.18 77.2841 175.98 77.8912 175.98 78.6907ZM182.328 81.8547V75.5421H183.331V76.501C183.581 76.0533 183.815 75.7657 184.032 75.6221C184.25 75.4786 184.5 75.3985 184.751 75.3985C185.135 75.3985 185.519 75.5097 185.903 75.7498L185.502 76.7246C185.235 76.5811 184.968 76.5169 184.7 76.5169C184.45 76.5169 184.232 76.5805 184.049 76.7246C183.848 76.8682 183.715 77.0605 183.631 77.3006C183.497 77.6841 183.447 78.0989 183.447 78.5466V81.8553L182.328 81.8547ZM192.519 80.8957L192.685 81.8394C192.369 81.9029 192.085 81.9353 191.834 81.9353C191.433 81.9353 191.115 81.8717 190.898 81.7594C190.682 81.6311 190.514 81.4717 190.431 81.264C190.331 81.0716 190.297 80.6404 190.297 80.0015V76.3734H189.462V75.5427H190.297V73.976L191.4 73.3371V75.5427H192.519V76.3734H191.4V80.065C191.4 80.3686 191.433 80.5604 191.466 80.6569C191.5 80.7369 191.567 80.8163 191.65 80.8646C191.751 80.9122 191.867 80.9446 192.034 80.9446C192.168 80.944 192.319 80.9275 192.519 80.8957ZM193.639 81.8547V73.1447H194.758V76.2769C195.276 75.7015 195.927 75.3985 196.713 75.3985C197.197 75.3985 197.615 75.4939 197.982 75.6856C198.333 75.8621 198.6 76.1169 198.751 76.4369C198.901 76.7723 198.984 77.2353 198.984 77.8589V81.8547H197.864V77.8589C197.864 77.3317 197.748 76.9323 197.497 76.6928C197.264 76.4534 196.93 76.3246 196.479 76.3246C196.161 76.3246 195.844 76.4052 195.56 76.5811C195.258 76.7405 195.058 76.964 194.942 77.2523C194.808 77.5241 194.758 77.9077 194.758 78.4031V81.8553L193.639 81.8547ZM205.2 79.8091L206.352 79.9527C206.185 80.5922 205.834 81.1034 205.35 81.4552C204.866 81.807 204.231 81.9824 203.462 81.9824C202.51 81.9824 201.742 81.6947 201.173 81.1352C200.622 80.5598 200.337 79.7768 200.337 78.7543C200.337 77.6841 200.622 76.8682 201.19 76.2769C201.758 75.7015 202.494 75.3985 203.412 75.3985C204.281 75.3985 204.999 75.6856 205.567 76.261C206.118 76.837 206.403 77.6518 206.403 78.6907C206.403 78.7543 206.403 78.8502 206.385 78.9625H201.473C201.524 79.6656 201.724 80.1933 202.091 80.5604C202.46 80.9281 202.911 81.104 203.461 81.104C203.879 81.104 204.23 81.0081 204.514 80.8004C204.799 80.5922 205.033 80.2568 205.2 79.8091ZM201.54 78.0989H205.216C205.166 77.5553 205.016 77.1723 204.799 76.9005C204.43 76.4852 203.979 76.2769 203.412 76.2769C202.894 76.2769 202.46 76.4369 202.125 76.7728C201.775 77.1082 201.574 77.54 201.54 78.0989ZM211.398 81.8547V73.1447H214.806C215.508 73.1447 216.059 73.2247 216.476 73.4006C216.895 73.5771 217.229 73.8483 217.463 74.216C217.713 74.5831 217.83 74.9667 217.83 75.3668C217.83 75.7498 217.713 76.0863 217.512 76.4216C217.296 76.757 216.978 77.0135 216.56 77.2206C217.111 77.3641 217.529 77.6359 217.829 78.0036C218.13 78.3713 218.264 78.819 218.264 79.3297C218.264 79.7297 218.181 80.1133 217.996 80.4645C217.812 80.8169 217.596 81.0881 217.328 81.2799C217.06 81.4558 216.726 81.6152 216.342 81.7111C215.941 81.807 215.44 81.8553 214.871 81.8553L211.398 81.8547ZM212.601 76.8046H214.572C215.106 76.8046 215.491 76.7728 215.725 76.7087C216.026 76.6134 216.26 76.4699 216.409 76.261C216.56 76.0698 216.644 75.8139 216.644 75.5103C216.644 75.2068 216.577 74.9514 216.427 74.7432C216.276 74.519 216.075 74.3755 215.808 74.2796C215.541 74.1996 215.073 74.1684 214.421 74.1684H212.6V76.8046H212.601ZM212.601 80.8316H214.872C215.257 80.8316 215.524 80.8163 215.691 80.784C215.959 80.7363 216.193 80.6563 216.376 80.5439C216.576 80.4327 216.727 80.2727 216.844 80.065C216.96 79.8409 217.027 79.602 217.027 79.3297C217.027 78.9943 216.944 78.7225 216.761 78.4831C216.594 78.2436 216.342 78.0677 216.042 77.9718C215.724 77.8759 215.29 77.8283 214.705 77.8283H212.6V80.8316H212.601ZM224.094 81.8547V80.911C223.577 81.6305 222.893 81.9818 222.006 81.9818C221.622 81.9818 221.254 81.9182 220.92 81.7735C220.586 81.63 220.336 81.454 220.168 81.2305C220.002 81.0222 219.884 80.751 219.817 80.4469C219.784 80.2233 219.751 79.9038 219.751 79.4408V75.5409H220.869V79.0249C220.869 79.5844 220.903 79.968 220.936 80.1598C221.02 80.4316 221.171 80.6557 221.387 80.8151C221.622 80.9746 221.888 81.054 222.24 81.054C222.574 81.054 222.874 80.974 223.175 80.8151C223.459 80.6557 223.677 80.4316 223.793 80.1433C223.911 79.8556 223.978 79.4561 223.978 78.9131V75.5409H225.096V81.8535H224.094V81.8547ZM226.4 79.9686L227.52 79.7927C227.569 80.2239 227.753 80.5433 228.038 80.7675C228.321 80.991 228.722 81.1028 229.224 81.1028C229.742 81.1028 230.127 81.0069 230.377 80.8157C230.611 80.6075 230.745 80.3674 230.745 80.0962C230.745 79.8562 230.627 79.665 230.411 79.5367C230.26 79.4414 229.876 79.3126 229.258 79.169C228.455 78.9778 227.887 78.8019 227.57 78.6578C227.253 78.5142 227.002 78.3225 226.852 78.0665C226.685 77.8106 226.602 77.5229 226.602 77.22C226.602 76.9323 226.668 76.6764 226.802 76.4369C226.936 76.1969 227.119 76.0057 227.353 75.8457C227.52 75.7174 227.753 75.6215 228.055 75.5256C228.355 75.4456 228.673 75.398 229.024 75.398C229.542 75.398 229.992 75.478 230.377 75.6215C230.777 75.7651 231.062 75.9569 231.245 76.1969C231.429 76.4369 231.563 76.7728 231.63 77.1882L230.544 77.3317C230.493 76.997 230.344 76.7405 230.109 76.5646C229.875 76.3728 229.541 76.2769 229.107 76.2769C228.589 76.2769 228.221 76.3569 228.004 76.5169C227.786 76.6928 227.686 76.8682 227.686 77.0923C227.686 77.2358 227.72 77.3641 227.82 77.4753C227.904 77.5877 228.054 77.6836 228.238 77.7477C228.354 77.7953 228.689 77.8912 229.224 78.0189C230.026 78.2272 230.56 78.3866 230.877 78.5148C231.195 78.6425 231.445 78.8343 231.613 79.0737C231.796 79.3297 231.896 79.6332 231.896 80.0009C231.896 80.3527 231.78 80.6881 231.563 80.9916C231.345 81.3117 231.028 81.5511 230.627 81.727C230.209 81.9029 229.742 81.9829 229.224 81.9829C228.372 81.9829 227.721 81.807 227.269 81.4717C226.818 81.1352 226.534 80.6404 226.4 79.9686ZM233.217 74.359V73.1447H234.336V74.359H233.217ZM233.217 81.8547V75.5421H234.336V81.8547H233.217ZM236.04 81.8547V75.5421H237.042V76.4369C237.527 75.7492 238.229 75.398 239.131 75.398C239.531 75.398 239.899 75.478 240.233 75.6056C240.568 75.7492 240.817 75.9257 240.986 76.1492C241.152 76.3728 241.253 76.6287 241.32 76.9323C241.369 77.1405 241.386 77.4753 241.386 77.9712V81.8553H240.266V78.0189C240.266 77.5882 240.233 77.2517 240.133 77.0446C240.05 76.8205 239.899 76.6446 239.682 76.5175C239.465 76.3893 239.199 76.3251 238.897 76.3251C238.429 76.3251 238.012 76.4699 237.678 76.757C237.327 77.0446 237.16 77.6041 237.16 78.4031V81.8553L236.04 81.8547ZM247.601 79.8091L248.771 79.9527C248.587 80.5922 248.253 81.1034 247.751 81.4552C247.267 81.807 246.632 81.9824 245.881 81.9824C244.911 81.9824 244.144 81.6947 243.592 81.1352C243.023 80.5598 242.739 79.7768 242.739 78.7543C242.739 77.6841 243.023 76.8682 243.592 76.2769C244.159 75.7015 244.895 75.3985 245.814 75.3985C246.683 75.3985 247.401 75.6856 247.969 76.261C248.52 76.837 248.804 77.6518 248.804 78.6907C248.804 78.7543 248.804 78.8502 248.804 78.9625H243.874C243.925 79.6656 244.125 80.1933 244.493 80.5604C244.862 80.9281 245.328 81.104 245.88 81.104C246.28 81.104 246.632 81.0081 246.916 80.8004C247.217 80.5922 247.434 80.2568 247.601 79.8091ZM243.942 78.0989H247.618C247.569 77.5553 247.435 77.1723 247.201 76.9005C246.85 76.4852 246.381 76.2769 245.814 76.2769C245.312 76.2769 244.878 76.4369 244.527 76.7728C244.177 77.1082 243.993 77.54 243.942 78.0989ZM249.74 79.9686L250.842 79.7927C250.892 80.2239 251.076 80.5433 251.36 80.7675C251.644 80.991 252.044 81.1028 252.547 81.1028C253.065 81.1028 253.449 81.0069 253.699 80.8157C253.95 80.6075 254.068 80.3674 254.068 80.0962C254.068 79.8562 253.95 79.665 253.732 79.5367C253.583 79.4414 253.199 79.3126 252.596 79.169C251.778 78.9778 251.21 78.8019 250.892 78.6578C250.574 78.5142 250.341 78.3225 250.174 78.0665C250.007 77.8106 249.923 77.5229 249.923 77.22C249.923 76.9323 249.989 76.6764 250.124 76.4369C250.257 76.1969 250.441 76.0057 250.675 75.8457C250.841 75.7174 251.076 75.6215 251.377 75.5256C251.677 75.4456 252.011 75.398 252.346 75.398C252.864 75.398 253.314 75.478 253.716 75.6215C254.101 75.7651 254.384 75.9569 254.568 76.1969C254.752 76.4369 254.886 76.7728 254.953 77.1882L253.865 77.3317C253.816 76.997 253.665 76.7405 253.432 76.5646C253.198 76.3728 252.864 76.2769 252.429 76.2769C251.911 76.2769 251.544 76.3569 251.326 76.5169C251.109 76.6928 251.009 76.8682 251.009 77.0923C251.009 77.2358 251.043 77.3641 251.143 77.4753C251.226 77.5877 251.377 77.6836 251.561 77.7477C251.677 77.7953 252.011 77.8912 252.547 78.0189C253.348 78.2272 253.899 78.3866 254.2 78.5148C254.517 78.6425 254.768 78.8343 254.953 79.0737C255.119 79.3297 255.219 79.6332 255.219 80.0009C255.219 80.3527 255.103 80.6881 254.886 80.9916C254.668 81.3117 254.35 81.5511 253.95 81.727C253.533 81.9029 253.065 81.9829 252.547 81.9829C251.695 81.9829 251.044 81.807 250.593 81.4717C250.141 81.1352 249.857 80.6404 249.74 79.9686ZM256.089 79.9686L257.192 79.7927C257.258 80.2239 257.426 80.5433 257.708 80.7675C257.993 80.991 258.394 81.1028 258.911 81.1028C259.413 81.1028 259.798 81.0069 260.048 80.8157C260.299 80.6075 260.432 80.3674 260.432 80.0962C260.432 79.8562 260.316 79.665 260.098 79.5367C259.932 79.4414 259.547 79.3126 258.945 79.169C258.127 78.9778 257.559 78.8019 257.241 78.6578C256.923 78.5142 256.69 78.3225 256.523 78.0665C256.372 77.8106 256.289 77.5229 256.289 77.22C256.289 76.9323 256.355 76.6764 256.489 76.4369C256.623 76.1969 256.807 76.0057 257.023 75.8457C257.207 75.7174 257.442 75.6215 257.742 75.5256C258.043 75.4456 258.36 75.398 258.711 75.398C259.229 75.398 259.68 75.478 260.065 75.6215C260.449 75.7651 260.749 75.9569 260.934 76.1969C261.116 76.4369 261.25 76.7728 261.317 77.1882L260.214 77.3317C260.18 76.997 260.031 76.7405 259.797 76.5646C259.546 76.3728 259.228 76.2769 258.777 76.2769C258.277 76.2769 257.91 76.3569 257.691 76.5169C257.474 76.6928 257.358 76.8682 257.358 77.0923C257.358 77.2358 257.407 77.3641 257.491 77.4753C257.592 77.5877 257.725 77.6836 257.925 77.7477C258.042 77.7953 258.359 77.8912 258.911 78.0189C259.697 78.2272 260.247 78.3866 260.565 78.5148C260.882 78.6425 261.116 78.8343 261.3 79.0737C261.483 79.3297 261.568 79.6332 261.568 80.0009C261.568 80.3527 261.467 80.6881 261.25 80.9916C261.033 81.3117 260.715 81.5511 260.298 81.727C259.897 81.9029 259.429 81.9829 258.91 81.9829C258.058 81.9829 257.407 81.807 256.956 81.4717C256.505 81.1352 256.222 80.6404 256.089 79.9686ZM267.398 79.8091L268.552 79.9527C268.367 80.5922 268.033 81.1034 267.549 81.4552C267.047 81.807 266.429 81.9824 265.661 81.9824C264.692 81.9824 263.94 81.6947 263.371 81.1352C262.804 80.5598 262.52 79.7768 262.52 78.7543C262.52 77.6841 262.804 76.8682 263.371 76.2769C263.956 75.7015 264.691 75.3985 265.594 75.3985C266.479 75.3985 267.197 75.6856 267.749 76.261C268.3 76.837 268.585 77.6518 268.585 78.6907C268.585 78.7543 268.585 78.8502 268.585 78.9625H263.673C263.707 79.6656 263.906 80.1933 264.274 80.5604C264.659 80.9281 265.109 81.104 265.661 81.104C266.061 81.104 266.413 81.0081 266.697 80.8004C266.998 80.5922 267.232 80.2568 267.398 79.8091ZM263.74 78.0989H267.398C267.365 77.5553 267.215 77.1723 266.98 76.9005C266.63 76.4852 266.162 76.2769 265.61 76.2769C265.092 76.2769 264.658 76.4369 264.307 76.7728C263.957 77.1082 263.774 77.54 263.74 78.0989ZM269.52 79.9686L270.623 79.7927C270.689 80.2239 270.857 80.5433 271.141 80.7675C271.426 80.991 271.826 81.1028 272.344 81.1028C272.846 81.1028 273.229 81.0069 273.48 80.8157C273.731 80.6075 273.848 80.3674 273.848 80.0962C273.848 79.8562 273.748 79.665 273.514 79.5367C273.363 79.4414 272.98 79.3126 272.378 79.169C271.559 78.9778 270.991 78.8019 270.673 78.6578C270.355 78.5142 270.122 78.3225 269.955 78.0665C269.788 77.8106 269.705 77.5229 269.705 77.22C269.705 76.9323 269.771 76.6764 269.905 76.4369C270.038 76.1969 270.223 76.0057 270.456 75.8457C270.64 75.7174 270.874 75.6215 271.174 75.5256C271.474 75.4456 271.792 75.398 272.126 75.398C272.645 75.398 273.113 75.478 273.497 75.6215C273.88 75.7651 274.181 75.9569 274.365 76.1969C274.549 76.4369 274.683 76.7728 274.749 77.1882L273.646 77.3317C273.597 76.997 273.463 76.7405 273.212 76.5646C272.978 76.3728 272.644 76.2769 272.21 76.2769C271.709 76.2769 271.341 76.3569 271.124 76.5169C270.907 76.6928 270.789 76.8682 270.789 77.0923C270.789 77.2358 270.839 77.3641 270.924 77.4753C271.024 77.5877 271.157 77.6836 271.358 77.7477C271.458 77.7953 271.792 77.8912 272.343 78.0189C273.129 78.2272 273.68 78.3866 273.998 78.5148C274.298 78.6425 274.549 78.8343 274.732 79.0737C274.916 79.3297 275 79.6332 275 80.0009C275 80.3527 274.883 80.6881 274.666 80.9916C274.448 81.3117 274.148 81.5511 273.731 81.727C273.329 81.9029 272.862 81.9829 272.343 81.9829C271.491 81.9829 270.822 81.807 270.373 81.4717C269.938 81.1352 269.654 80.6404 269.52 79.9686Z" fill="#5B666F"/>
<path fill-rule="evenodd" clip-rule="evenodd" d="M27.0598 20.5981C19.8068 17.2021 6.95782 21.7391 6.06182 30.5681C5.92582 36.6261 9.21282 45.9711 9.51182 50.2891C10.1908 54.0111 9.29482 57.5431 9.53882 61.2371C9.48482 67.3771 10.1098 71.6421 14.6458 75.0641C5.92582 69.9301 2.50282 64.0351 3.61682 57.6241C4.70282 52.7341 4.59482 50.2891 3.31782 46.4591C-0.81118 32.4961 0.11282 22.6631 5.70882 18.8591C13.4778 13.9971 21.6538 14.4041 27.0598 20.5981Z" fill="#DD2A1B" stroke="#DD2A1B" stroke-width="0.2268" stroke-miterlimit="10"/>
<path fill-rule="evenodd" clip-rule="evenodd" d="M40.6427 21.4131C49.4437 19.0501 54.5507 20.5171 55.4197 30.2421C55.3927 33.5291 54.5237 37.1691 52.6487 41.6781C50.9377 44.9661 50.1227 48.8491 49.5517 55.5871C49.1167 69.5771 46.9167 76.3681 39.9897 75.9331C47.4327 78.3511 52.4857 72.9451 54.1147 63.4921C54.5227 60.8291 55.1477 49.8551 57.9727 43.4711C63.9497 29.9701 63.0797 22.3911 58.7867 19.2671C55.0937 15.9251 45.4777 16.0071 40.6427 21.4131Z" fill="#DD2A1B" stroke="#DD2A1B" stroke-width="0.2268" stroke-miterlimit="10"/>
<path fill-rule="evenodd" clip-rule="evenodd" d="M32.4656 15.6271C34.9646 9.18907 36.5406 5.54807 42.0276 0.333066C43.0876 0.822066 44.4726 0.768066 46.2116 0.143066L47.8686 0.850066C43.7666 5.14207 38.3876 8.89107 36.7586 15.6821C38.5516 15.9261 39.9096 15.3281 40.8606 13.8341C40.9966 15.0571 40.6436 16.0081 39.6656 16.6601C41.5126 16.4151 43.5496 15.5731 45.8046 14.0251C45.0436 16.3071 42.8166 17.5021 39.6926 18.0191C40.1546 18.6701 41.2686 18.6981 42.6806 18.4531C40.5346 21.1701 37.1386 21.1701 33.0916 19.7841C27.8766 21.5221 25.3766 18.5891 24.4536 13.0751C25.7846 14.7321 27.1426 16.2261 28.6906 16.4431C27.5766 14.8951 27.7396 13.4821 28.2836 12.0971C28.8256 14.1601 29.8306 15.7351 32.4656 15.6271Z" fill="#5BBF08"/>
<path d="M79.6918 50.1172V55.746C78.01 54.5442 75.9756 53.9428 73.5338 53.9428C71.4445 53.9428 69.8436 54.325 68.6771 55.0903C67.5375 55.8556 66.9683 56.9478 66.9683 58.3678C66.9683 61.1273 69.1385 62.493 73.4529 62.493H82.2155V50.5537C82.2155 45.5284 79.6119 42.987 74.4026 42.987H63.7674V37.7415H74.7282C79.0147 37.7415 82.2974 38.7522 84.6034 40.7464C86.9095 42.7407 88.049 45.6088 88.049 49.3791V67.7657H73.2621C69.491 67.7657 66.5069 66.9733 64.3097 65.3883C62.0846 63.8044 61 61.4823 61 58.4492C61 55.39 62.1665 53.095 64.4995 51.5111C66.8604 49.9262 69.7896 49.1347 73.344 49.1347C75.3245 49.1347 77.4407 49.4626 79.6918 50.1172ZM92.1447 82V52.74C92.1447 50.5819 92.5522 48.5323 93.3931 46.6205C94.234 44.7077 95.4005 43.0414 96.8386 41.6485C98.3037 40.2556 100.04 39.1625 102.02 38.3429C104.027 37.5232 106.144 37.1129 108.396 37.1129C110.648 37.1129 112.764 37.5232 114.743 38.3429C116.697 39.1615 118.433 40.2818 119.898 41.6757C121.39 43.0957 122.557 44.7621 123.397 46.6477C124.238 48.5605 124.646 50.5819 124.646 52.74C124.646 54.9254 124.238 56.9467 123.424 58.8324C122.61 60.7452 121.471 62.4106 120.007 63.8044C118.542 65.2254 116.832 66.3447 114.824 67.1644C112.844 67.983 110.701 68.3651 108.395 68.3651C105.573 68.3651 102.942 67.7647 100.5 66.5077V60.8799C102.67 62.3824 105.221 63.1195 108.205 63.1195C109.779 63.1195 111.243 62.8742 112.546 62.3542C113.849 61.8353 114.961 61.0971 115.856 60.1961C116.751 59.2678 117.457 58.1747 117.945 56.9186C118.434 55.6343 118.677 54.2405 118.677 52.739C118.677 51.2356 118.433 49.8698 117.945 48.5866C117.457 47.3295 116.779 46.2364 115.884 45.3081C115.016 44.4071 113.93 43.6689 112.682 43.149C111.408 42.63 109.997 42.3846 108.396 42.3846C106.85 42.3846 105.438 42.63 104.19 43.1228C102.916 43.6136 101.83 44.3236 100.935 45.2538C100.013 46.1549 99.3344 47.2471 98.846 48.5313C98.3576 49.7884 98.113 51.2094 98.113 52.739V82H92.1447ZM150.502 37.7415V42.987H138.753C137.452 42.987 136.366 43.2334 135.417 43.6981C134.495 44.1355 134.033 44.7902 134.033 45.6098C134.033 46.1288 134.141 46.5662 134.359 46.9755C134.603 47.3577 134.847 47.6865 135.118 47.9319C135.417 48.1783 135.851 48.4519 136.447 48.7244C137.045 48.9969 137.506 49.189 137.859 49.2695C138.184 49.3791 139.594 49.8166 142.063 50.5527C144.532 51.319 146.377 51.9466 147.57 52.4393C148.764 52.9301 149.686 53.613 150.338 54.4607C150.962 55.3347 151.369 56.1543 151.56 56.9739C151.723 57.7935 151.83 58.586 151.83 59.3775C151.83 64.9509 147.761 67.7647 139.594 67.7647H128.119V62.491H139.594C143.772 62.491 145.834 61.4532 145.834 59.3764C145.834 58.3657 145.238 57.5471 144.018 56.8633C142.797 56.2076 141.332 55.6333 139.568 55.1959C137.832 54.7323 136.068 54.1852 134.332 53.5848C132.595 52.9834 131.103 51.9999 129.883 50.6613C128.662 49.2956 128.065 47.6282 128.065 45.6068C128.065 43.0665 129.097 41.1266 131.186 39.7609C133.274 38.4223 135.798 37.7395 138.754 37.7395H150.502V37.7415ZM163.849 67.7657H158.017V42.987H152.59L155.251 37.7415H163.849V67.7657ZM157.746 31.4862C157.176 30.7762 156.905 30.0109 156.905 29.1923C156.905 28.3455 157.176 27.5792 157.746 26.8973C158.342 26.2145 159.209 25.8595 160.404 25.8595C161.6 25.8595 162.495 26.2145 163.062 26.8973C163.632 27.5802 163.932 28.3455 163.932 29.1923C163.932 30.0109 163.632 30.7762 163.062 31.4591C162.495 32.1419 161.599 32.4969 160.404 32.4969C159.21 32.4969 158.342 32.1691 157.746 31.4862ZM166.21 42.987L178.092 31.8141V37.7425H187.045V42.9881H178.092V55.8827C178.092 57.3299 178.335 58.5327 178.851 59.5152C179.368 60.4716 180.1 61.1273 181.077 61.5366C182.054 61.9198 182.975 62.1923 183.845 62.3019C184.686 62.4387 185.77 62.493 187.045 62.493V67.7668C181.971 67.7668 178.201 66.8375 175.759 65.0072C173.345 63.1769 172.123 60.1176 172.123 55.8827V42.987H166.21ZM205.738 37.1139C213.252 37.4146 216.996 40.3643 216.996 45.9377C216.996 52.904 212.167 56.3735 202.481 56.3735H199.768V51.5664H202.943C205.9 51.5664 207.962 51.1289 209.102 50.2822C210.269 49.4354 210.837 48.0154 210.837 45.993C210.837 44.7088 210.323 43.7252 209.319 43.0967C208.287 42.442 206.986 42.1141 205.384 42.1141C202.264 42.1141 199.796 43.151 198.006 45.2558C196.215 47.3315 195.32 49.8447 195.32 52.741C195.32 55.8274 196.27 58.3406 198.195 60.2534C200.123 62.1652 202.644 63.1216 205.738 63.1216C208.505 63.1216 210.783 62.493 212.574 61.1816L216.536 64.8694C213.498 67.2187 209.888 68.3661 205.738 68.3661C200.69 68.3661 196.649 66.9733 193.664 64.1866C190.654 61.3999 189.135 57.7945 189.135 53.3676C189.135 48.4509 190.626 44.4895 193.583 41.4303C196.541 38.3982 200.582 36.95 205.738 37.1139ZM242.2 61.1816L246.162 64.8694C243.122 67.2187 239.623 68.3661 235.691 68.3661C230.78 68.3661 226.845 66.8918 223.888 63.914C220.905 60.9362 219.439 57.2203 219.439 52.741C219.439 48.3694 220.985 44.6816 224.107 41.6495C227.227 38.6446 231.077 37.1149 235.692 37.1149C239.625 37.1149 243.123 38.2896 246.163 40.6117L242.256 44.3809C240.411 43.0424 238.213 42.3877 235.692 42.3877C232.626 42.3877 230.211 43.3159 228.42 45.2277C226.63 47.1133 225.735 49.6275 225.735 52.741C225.735 55.8827 226.63 58.3959 228.42 60.2805C230.211 62.1933 232.626 63.1216 235.692 63.1216C238.268 63.1216 240.41 62.493 242.2 61.1816ZM254.436 24V37.7415H260.078C264.989 37.7415 268.488 38.4253 270.632 39.8172C272.531 41.02 273.726 42.4681 274.239 44.1607C274.755 45.8552 275 48.0677 275 50.8001V67.7657H269.167V50.8826C269.167 50.1172 269.141 49.4887 269.086 48.9708C269.059 48.4519 268.896 47.769 268.624 46.9765C268.354 46.1579 268 45.4741 267.512 44.9551C267.024 44.4362 266.318 43.9987 265.368 43.5904C264.447 43.2073 263.335 42.9891 262.006 42.9891H254.436V67.7678H248.603V24H254.436Z" fill="#DD2A1B"/>
<path d="M41.9737 59.2529L46.8367 63.736C43.1147 66.562 38.8497 67.9739 34.0147 67.9739C28.0117 67.9739 23.2027 66.181 19.5897 62.541C15.9767 58.928 14.1567 54.418 14.1567 49.012C14.1567 43.688 16.0577 39.2049 19.8617 35.5379C23.6917 31.8709 28.3917 30.0229 34.0147 30.0229C38.8497 30.0229 43.1147 31.4629 46.8367 34.2879L42.0557 38.824C39.7737 37.221 37.1117 36.407 34.0147 36.407C30.2927 36.407 27.3317 37.5479 25.1317 39.8569C22.9587 42.1669 21.8727 45.209 21.8727 49.012C21.8727 52.788 22.9587 55.858 25.1317 58.139C27.3317 60.449 30.2927 61.6169 34.0147 61.6169C37.1657 61.6169 39.8007 60.8289 41.9737 59.2529Z" fill="#DD2A1B"/>
</svg>
